# AST/ASF file generated using VICON BodyLanguage
# -----------------------------------------------
:version 1.10
:name VICON
:units
  mass 1.0
  length 0.45
  angle deg
:documentation
   .ast/.asf automatically generated from VICON data using
   VICON BodyBuilder and BodyLanguage model FoxedUp or BRILLIANT.MOD
:root
   order TX TY TZ RX RY RZ
   axis XYZ
   position 0 0 0  
   orientation 0 0 0 
:bonedata
  begin
     id 1 
     name lhipjoint
     direction 0.561001 -0.76473 0.316963 
     length 2.4722 
     axis 0 0 0  XYZ
  end
  begin
     id 2 
     name lfemur
     direction 0.34202 -0.939693 0  
     length 7.59403  
     axis 0 0 20  XYZ
    dof rx ry rz
    limits (-160.0 20.0)
           (-70.0 70.0)
           (-60.0 70.0)
  end
  begin
     id 3 
     name ltibia
     direction 0.34202 -0.939693 0   
     length 7.89655   
     axis 0 0 20   XYZ
    dof rx
    limits (-10.0 170.0)
  end
  begin
     id 4 
     name lfoot
     direction 0.061296 -0.168409 0.98381   
     length 2.73287   
     axis -90 7.62852e-016 20   XYZ
    dof rx rz
    limits (-45.0 90.0)
           (-70.0 20.0)
  end
  begin
     id 5 
     name ltoes
     direction 1.53547e-011 -4.21984e-011 1   
     length 1.37057   
     axis -90 7.62852e-016 20   XYZ
    dof rx
    limits (-90.0 20.0)
  end
  begin
     id 6 
     name rhipjoint
     direction -0.559611 -0.765599 0.317323   
     length 2.46939  
     axis 0 0 0  XYZ 
  end
  begin
     id 7 
     name rfemur
     direction -0.34202 -0.939693 0   
     length 7.53712   
     axis 0 0 -20   XYZ
    dof rx ry rz
    limits (-160.0 20.0)
           (-70.0 70.0)
           (-70.0 60.0)
  end
  begin
     id 8 
     name rtibia
     direction -0.34202 -0.939693 0   
     length 8.12549   
     axis 0 0 -20   XYZ
    dof rx
    limits (-10.0 170.0)
 end
 begin
     id 9 
     name rfoot
     direction -0.066984 -0.184037 0.980634   
     length 2.67541  
     axis -90 -7.62852e-016 -20   XYZ
    dof rx rz
    limits (-45.0 90.0)
           (-20.0 70.0)
  end
  begin
     id 10 
     name rtoes
     direction -1.53549e-011 -4.21786e-011 1   
     length 1.34085   
     axis -90 -7.62852e-016 -20   XYZ
    dof rx
    limits (-90.0 20.0)
  end
  begin
     id 11 
     name lowerback
     direction -0.0522728 0.992594 -0.109658   
     length 2.05633   
     axis 0 0 0   XYZ
    dof rx ry rz
    limits (-20.0 45.0)
           (-30.0 30.0)
           (-30.0 30.0)
  end
  begin
     id 12 
     name upperback
     direction 0.00589338 0.999977 0.00335704   
     length 2.05845   
     axis 0 0 0   XYZ
    dof rx ry rz
    limits (-20.0 45.0)
           (-30.0 30.0)
           (-30.0 30.0)
  end
  begin
     id 13 
     name thorax
     direction 0.0292928 0.998059 0.0549487   
     length 2.09281   
     axis 0 0 0   XYZ
    dof rx ry rz
    limits (-20.0 45.0)
           (-30.0 30.0)
           (-30.0 30.0)
  end
  begin
     id 14 
     name lowerneck
     direction 0.0356368 0.980775 0.191858   
     length 1.84767   
     axis 0 0 0   XYZ
    dof rx ry rz
    limits (-20.0 45.0)
           (-30.0 30.0)
           (-30.0 30.0)
  end
  begin
     id 15 
     name upperneck
     direction -0.0227605 0.98931 -0.14404   
     length 1.89582   
     axis 0 0 0   XYZ
    dof rx ry rz
    limits (-20.0 45.0)
           (-30.0 30.0)
           (-30.0 30.0)
  end
  begin
     id 16
     name head
     direction -0.00932985 0.997511 -0.0698904  
     length 1.90213  
     axis 0 0 0   XYZ
    dof rx ry rz
    limits (-20.0 45.0)
           (-30.0 30.0)
           (-30.0 30.0)
  end
  begin
     id 17 
     name lclavicle
     direction 0.873442 0.479511 0.0846686  
     length 3.41193  
     axis 0 0 0   XYZ
    dof ry rz
    limits (-20.0 10.0)
           (0.0 20.0)
  end
  begin
     id 18 
     name lhumerus
     direction 1 -4.4897e-011 -5.62117e-018   
     length 5.59864   
     axis 180 -30 -90   XYZ
    dof rx ry rz
    limits (-60.0 90.0)
           (-90.0 90.0)
           (-90.0 90.0)
  end
  begin
     id 19
     name lradius
     direction 1 -4.48966e-011 -6.26295e-027   
     length 3.59542   
     axis 180 -30 -90   XYZ
    dof rx
    limits (-10.0 170.0)
  end
  begin
     id 20
     name lwrist
     direction 1 -4.48947e-011 -1.74096e-026   
     length 1.79771   
     axis 1.04567e-014 90 90   XYZ
    dof ry
    limits (-180.0 0.0)
 end
  begin
     id 21 
     name lhand
     direction 1 -4.49085e-011 -3.48469e-026   
     length 0.572014   
     axis 2.22196e-014 90 90   XYZ
    dof rx rz
    limits (-90.0 90.0)
           (-45.0 45.0)
  end
  begin
     id 22 
     name lfingers
     direction 1 -4.48884e-011 -6.96135e-026   
     length 0.461173   
     axis 4.44383e-014 90 90   XYZ
    dof rx
    limits (0.0 90.0)
  end
  begin
     id 23
     name lthumb
     direction 0.707107 -6.34976e-011 0.707107   
     length 0.662154   
     axis -90 45 -5.4397e-014   XYZ
    dof rx rz
    limits (-45.0 45.0)
           (-45.0 45.0)
  end
  begin
     id 24 
     name rclavicle
     direction -0.890242 0.443271 0.104786   
     length 3.46753  
     axis 0 0 0   XYZ 
    dof ry rz
    limits (-10.0 20.0)
           (-20.0 0.0)
  end
  begin
     id 25 
     name rhumerus
     direction -1 -4.48963e-011 -5.41723e-018  
     length 5.8094   
     axis 180 30 90   XYZ
    dof rx ry rz
    limits (-90.0 60.0)
           (-90.0 90.0)
           (-90.0 90.0)
  end
  begin
     id 26 
     name rradius
     direction -1 -4.48958e-011 -6.51059e-027   
     length 3.66953   
     axis 180 30 90   XYZ
    dof rx
    limits (-10.0 170.0)
  end
  begin
     id 27 
     name rwrist
     direction -1 -4.48975e-011 -1.74124e-026   
     length 1.83476   
     axis 1.04567e-014 -90 -90   XYZ
    dof ry
    limits (-180.0 0.0)
  end
  begin
     id 28
     name rhand
     direction -1 -4.49013e-011 -3.48326e-026   
     length 0.57843   
     axis 2.22196e-014 -90 -90   XYZ
    dof rx rz
    limits (-90.0 90.0)
           (-45.0 45.0)
  end
  begin
     id 29
     name rfingers
     direction -1 -4.49023e-011 -6.9669e-026   
     length 0.466345   
     axis 4.44383e-014 -90 -90   XYZ
    dof rx
    limits (0.0 90.0)
  end
  begin
     id 30
     name rthumb
     direction -0.707107 -6.34926e-011 0.707107   
     length 0.669581   
     axis -90 -45 5.4397e-014   XYZ
    dof rx rz
    limits (-45.0 45.0)
           (-45.0 45.0)
  end
:hierarchy
  begin
    root lhipjoint rhipjoint lowerback
    lhipjoint lfemur
    lfemur ltibia
    ltibia lfoot
    lfoot ltoes
    rhipjoint rfemur
    rfemur rtibia
    rtibia rfoot
    rfoot rtoes
    lowerback upperback
    upperback thorax
    thorax lowerneck lclavicle rclavicle
    lowerneck upperneck
    upperneck head
    lclavicle lhumerus
    lhumerus lradius
    lradius lwrist
    lwrist lhand lthumb
    lhand lfingers
    rclavicle rhumerus
    rhumerus rradius
    rradius rwrist
    rwrist rhand rthumb
    rhand rfingers
  end

#!OML:ASF H:\SkateBoarding\Project 1\Capture day 1\Session 1\Skater.ASF
:FULLY-SPECIFIED
:DEGREES
33
root -13.6474 19.1972 -24.3302 16.4601 96.6765 7.95188
lowerback 11.8597 -8.68111 -5.11025
upperback -0.316429 -12.2047 0.390431
thorax -5.74269 -5.83224 5.11047
lowerneck -14.8027 -5.90942 -0.291431
upperneck 42.5125 -9.19001 3.53802
head 18.8873 -2.74737 0.0902634
rclavicle 1.26029e-013 7.95139e-015
rhumerus -67.7405 10.99 -75.5204
rradius 88.3438
rwrist -4.7157
rhand -45.0908 4.2519
rfingers 7.12502
rthumb -17.8711 -24.947
lclavicle 1.26029e-013 7.95139e-015
lhumerus -16.478 -33.2258 95.1519
lradius 62.6571
lwrist 8.7389
lhand -38.0173 -7.23432
lfingers 7.12502
lthumb -11.0559 22.4545
rfemur -21.3175 14.7186 17.5207
rtibia 52.6197
rfoot -41.3615 5.14205
rtoes -2.49228
lfemur -24.9802 -10.6107 -10.5158
ltibia 57.1991
lfoot -43.5485 6.07688
ltoes -26.0308
34
root -13.6218 19.2284 -23.9021 16.9144 97.5102 8.35807
lowerback 11.741 -8.77242 -5.06699
upperback -0.347627 -12.3192 0.345398
thorax -5.71682 -5.89188 5.03839
lowerneck -14.8235 -5.74456 -0.564931
upperneck 42.4786 -8.93421 3.81202
head 18.9083 -2.64825 0.321057
rclavicle 5.96354e-016 1.59028e-014
rhumerus -68.3535 11.2982 -75.173
rradius 87.8779
rwrist -3.6708
rhand -45.3988 5.14709
rfingers 7.12502
rthumb -18.1673 -24.0245
lclavicle 5.96354e-016 1.59028e-014
lhumerus -16.5576 -31.7748 93.2788
lradius 62.8917
lwrist 7.07857
lhand -38.6234 -7.9571
lfingers 7.12502
lthumb -11.6405 21.6996
rfemur -20.5428 14.8314 17.8857
rtibia 51.5365
rfoot -40.9302 5.5528
rtoes -2.26765
lfemur -25.349 -11.5158 -10.2288
ltibia 57.4184
lfoot -43.6019 7.85682
ltoes -26.4784
35
root -13.5971 19.2572 -23.4752 17.4651 98.2132 8.90512
lowerback 11.6533 -8.80514 -5.05566
upperback -0.369525 -12.3606 0.308583
thorax -5.69784 -5.91413 4.98673
lowerneck -14.8051 -5.56952 -0.815009
upperneck 42.4067 -8.63763 4.01858
head 18.8812 -2.54166 0.524725
rclavicle -1.67178e-013 -3.18055e-015
rhumerus -68.8348 11.697 -74.6198
rradius 87.3111
rwrist -2.54258
rhand -45.8259 6.04524
rfingers 7.12502
rthumb -18.5782 -23.0876
lclavicle -1.67178e-013 -3.18055e-015
lhumerus -16.5307 -30.3048 91.1956
lradius 63.1
lwrist 5.76203
lhand -39.2239 -8.53029
lfingers 7.12502
lthumb -12.2196 21.0928
rfemur -19.8294 14.6022 18.3592
rtibia 50.5187
rfoot -40.6579 5.6263
rtoes -2.39638
lfemur -25.6419 -12.3826 -9.91583
ltibia 57.6202
lfoot -43.583 9.45608
ltoes -26.8245
36
root -13.5738 19.2835 -23.049 18.0386 98.7563 9.5119
lowerback 11.5954 -8.77582 -5.12235
upperback -0.385936 -12.3301 0.28741
thorax -5.67762 -5.89851 4.98684
lowerneck -14.7455 -5.39123 -1.03665
upperneck 42.3097 -8.30317 4.13113
head 18.8118 -2.4308 0.686307
rclavicle -1.1947e-013 1.43125e-014
rhumerus -69.1316 12.2063 -73.8482
rradius 86.6162
rwrist -1.39729
rhand -46.2985 6.98489
rfingers 7.12502
rthumb -19.0328 -22.1039
lclavicle -1.1947e-013 1.43125e-014
lhumerus -16.4006 -28.784 88.9209
lradius 63.2732
lwrist 4.91619
lhand -39.7907 -8.93813
lfingers 7.12502
lthumb -12.766 20.6516
rfemur -19.2007 14.1066 18.8876
rtibia 49.5977
rfoot -40.4606 5.49279
rtoes -2.69967
lfemur -25.8459 -13.1388 -9.60621
ltibia 57.7887
lfoot -43.5267 10.8722
ltoes -27.0706
37
root -13.5518 19.3076 -22.623 18.568 99.1162 10.1079
lowerback 11.573 -8.67894 -5.28346
upperback -0.401832 -12.224 0.263901
thorax -5.6659 -5.84221 5.03025
lowerneck -14.6468 -5.22286 -1.20724
upperneck 42.211 -7.95851 4.14444
head 18.7163 -2.32206 0.793697
rclavicle 1.27222e-013 -3.18055e-015
rhumerus -69.2244 12.7964 -72.8746
rradius 85.772
rwrist -0.307038
rhand -46.7965 7.94562
rfingers 7.12502
rthumb -19.5117 -21.0953
lclavicle 1.27222e-013 -3.18055e-015
lhumerus -16.2048 -27.2444 86.4623
lradius 63.4159
lwrist 4.64464
lhand -40.3303 -9.14481
lfingers 7.12502
lthumb -13.2862 20.4117
rfemur -18.6628 13.4209 19.4133
rtibia 48.788
rfoot -40.2394 5.25616
rtoes -3.11751
lfemur -25.9468 -13.724 -9.33391
ltibia 57.907
lfoot -43.4594 12.1381
ltoes -27.21
38
root -13.5313 19.3301 -22.1972 19.1241 99.278 10.7567
lowerback 11.5846 -8.50807 -5.52972
upperback -0.421158 -12.0338 0.223675
thorax -5.67315 -5.74062 5.09723
lowerneck -14.5143 -5.07941 -1.31144
upperneck 42.1306 -7.63912 4.07237
head 18.6127 -2.22374 0.844081
rclavicle -3.67752e-014 2.38542e-014
rhumerus -69.1037 13.4216 -71.7198
rradius 84.7607
rwrist 0.667833
rhand -47.2926 8.91099
rfingers 7.12502
rthumb -19.9886 -20.0809
lclavicle -3.67752e-014 2.38542e-014
lhumerus -15.9729 -25.734 83.8236
lradius 63.5235
lwrist 4.9719
lhand -40.8453 -9.1382
lfingers 7.12502
lthumb -13.7826 20.3853
rfemur -18.214 12.6293 19.8986
rtibia 48.0841
rfoot -39.8697 5.0903
rtoes -3.68263
lfemur -25.9408 -14.0948 -9.10546
ltibia 57.963
lfoot -43.39 13.3063
ltoes -27.2831
39
root -13.5115 19.3515 -21.771 19.7014 99.2236 11.4492
lowerback 11.6178 -8.26225 -5.87592
upperback -0.43825 -11.7598 0.155064
thorax -5.68755 -5.59426 5.18097
lowerneck -14.3611 -4.97346 -1.35057
upperneck 42.0838 -7.37563 3.9395
head 18.519 -2.14406 0.843669
rclavicle -1.46703e-013 -9.54166e-015
rhumerus -68.7477 14.0451 -70.4111
rradius 83.5717
rwrist 1.47745
rhand -47.7657 9.79645
rfingers 7.12502
rthumb -20.4433 -19.1474
lclavicle -1.46703e-013 -9.54166e-015
lhumerus -15.6991 -24.2404 81.0109
lradius 63.5589
lwrist 5.81735
lhand -41.3409 -8.95998
lfingers 7.12502
lthumb -14.2601 20.5304
rfemur -17.8338 11.8281 20.3057
rtibia 47.4661
rfoot -39.2839 5.11431
rtoes -4.18786
lfemur -25.817 -14.2331 -8.93618
ltibia 57.9486
lfoot -43.3369 14.3932
ltoes -27.2613
40
root -13.4925 19.3723 -21.3453 20.3983 98.9528 12.2713
lowerback 11.6542 -7.94578 -6.29175
upperback -0.452347 -11.4035 0.0468593
thorax -5.70809 -5.40481 5.25173
lowerneck -14.216 -4.89726 -1.32076
upperneck 42.0779 -7.1727 3.78096
head 18.4511 -2.07874 0.807429
rclavicle -1.60022e-013 -2.70347e-014
rhumerus -68.1553 14.6172 -68.9776
rradius 82.204
rwrist 2.08329
rhand -48.1855 10.6032
rfingers 7.12502
rthumb -20.8467 -18.2968
lclavicle -1.60022e-013 -2.70347e-014
lhumerus -15.4186 -22.8706 78.0012
lradius 63.55
lwrist 7.14857
lhand -41.8803 -8.60638
lfingers 7.12502
lthumb -14.7798 20.8466
rfemur -17.5109 11.0788 20.6165
rtibia 46.9051
rfoot -38.4393 5.41509
rtoes -4.56658
lfemur -25.5871 -14.1429 -8.81443
ltibia 57.8644
lfoot -43.2855 15.3953
ltoes -27.1516
41
root -13.4736 19.3928 -20.92 21.2452 98.471 13.2501
lowerback 11.6836 -7.5652 -6.76179
upperback -0.462714 -10.9713 -0.113062
thorax -5.73452 -5.17595 5.28827
lowerneck -14.0817 -4.85307 -1.23013
upperneck 42.111 -7.0437 3.62737
head 18.4118 -2.03044 0.74881
rclavicle -5.64548e-014 2.54444e-014
rhumerus -67.3434 15.0918 -67.4543
rradius 80.669
rwrist 2.46641
rhand -48.5494 11.1614
rfingers 7.12502
rthumb -21.1962 -17.6998
lclavicle -5.64548e-014 2.54444e-014
lhumerus -15.0968 -21.5593 74.8306
lradius 63.4115
lwrist 8.72877
lhand -42.4315 -8.16103
lfingers 7.12502
lthumb -15.3109 21.2522
rfemur -17.2201 10.4313 20.8227
rtibia 46.3751
rfoot -37.3544 5.99013
rtoes -4.75738
lfemur -25.2497 -13.8372 -8.73699
ltibia 57.7128
lfoot -43.2162 16.2871
ltoes -26.9739
42
root -13.4549 19.4127 -20.4953 22.3985 97.7901 14.5368
lowerback 11.6937 -7.12253 -7.27782
upperback -0.46862 -10.4629 -0.314526
thorax -5.75973 -4.90825 5.29465
lowerneck -13.9761 -4.83026 -1.09779
upperneck 42.1724 -6.97685 3.50442
head 18.401 -1.99426 0.685095
rclavicle -8.01102e-014 -4.13472e-014
rhumerus -66.3284 15.4332 -65.851
rradius 78.989
rwrist 2.60474
rhand -48.8647 11.5477
rfingers 7.12502
rthumb -21.4991 -17.2792
lclavicle -8.01102e-014 -4.13472e-014
lhumerus -14.7292 -20.3439 71.5263
lradius 63.126
lwrist 10.41
lhand -42.9988 -7.63933
lfingers 7.12502
lthumb -15.8572 21.7313
rfemur -16.9471 9.91557 20.9385
rtibia 45.8581
rfoot -36.0998 6.76646
rtoes -4.76518
lfemur -24.8083 -13.3611 -8.68394
ltibia 57.502
lfoot -43.131 17.0238
ltoes -26.7356
43
root -13.4359 19.4323 -20.0722 24.0414 96.9562 16.3088
lowerback 11.6754 -6.62863 -7.81465
upperback -0.471877 -9.88754 -0.541896
thorax -5.78173 -4.60711 5.2738
lowerneck -13.8961 -4.8324 -0.944053
upperneck 42.2493 -6.97138 3.41344
head 18.4111 -1.9736 0.620505
rclavicle -8.38871e-014 -4.77083e-015
rhumerus -65.1542 15.6152 -64.17
rradius 77.199
rwrist 2.48379
rhand -49.1151 11.6152
rfingers 7.12502
rthumb -21.7395 -17.184
lclavicle -8.38871e-014 -4.77083e-015
lhumerus -14.2901 -19.1841 68.1645
lradius 62.6352
lwrist 11.9705
lhand -43.5526 -7.05503
lfingers 7.12502
lthumb -16.3905 22.2724
rfemur -16.6835 9.52876 20.9847
rtibia 45.3456
rfoot -34.7553 7.65659
rtoes -4.6051
lfemur -24.2752 -12.7794 -8.63632
ltibia 57.24
lfoot -43.021 17.5524
ltoes -26.4313
44
root -13.4165 19.4514 -19.6521 26.3962 96.021 18.7688
lowerback 11.6062 -6.11588 -8.32775
upperback -0.47632 -9.27952 -0.790689
thorax -5.79392 -4.29138 5.20814
lowerneck -13.845 -4.84397 -0.786267
upperneck 42.3327 -6.9971 3.35222
head 18.4364 -1.96014 0.562569
rclavicle 3.37934e-015 7.95139e-015
rhumerus -63.8377 15.6445 -62.4385
rradius 75.3203
rwrist 2.10182
rhand -49.3207 11.5135
rfingers 7.12502
rthumb -21.937 -17.2627
lclavicle 3.37934e-015 7.95139e-015
lhumerus -13.7816 -18.0389 64.7914
lradius 61.9086
lwrist 13.2763
lhand -44.0577 -6.41811
lfingers 7.12502
lthumb -16.8767 22.8686
rfemur -16.4432 9.27098 20.9731
rtibia 44.8395
rfoot -33.4239 8.5317
rtoes -4.34981
lfemur -23.6862 -12.1582 -8.58674
ltibia 56.9371
lfoot -42.8864 17.8531
ltoes -26.1129
45
root -13.3968 19.4703 -19.236 30.0455 95.0554 22.4846
lowerback 11.48 -5.59213 -8.79546
upperback -0.487655 -8.6438 -1.02563
thorax -5.79458 -3.96428 5.12356
lowerneck -13.8106 -4.87364 -0.640837
upperneck 42.4073 -7.05208 3.29841
head 18.4633 -1.95962 0.504006
rclavicle -6.71892e-014 -2.22639e-014
rhumerus -62.4238 15.5174 -60.6441
rradius 73.3872
rwrist 1.47288
rhand -49.5047 11.0336
rfingers 7.12502
rthumb -22.1136 -17.7218
lclavicle -6.71892e-014 -2.22639e-014
lhumerus -13.2005 -16.9166 61.506
lradius 60.9369
lwrist 14.2763
lhand -44.5063 -5.69196
lfingers 7.12502
lthumb -17.3086 23.5573
rfemur -16.2419 9.12722 20.9415
rtibia 44.346
rfoot -32.1907 9.28362
rtoes -4.07406
lfemur -23.0767 -11.5462 -8.50604
ltibia 56.6029
lfoot -42.7359 17.9071
ltoes -25.7854
46
root -13.3767 19.4893 -18.8247 35.5741 94.1233 28.0305
lowerback 11.2954 -5.08176 -9.22099
upperback -0.507233 -8.01145 -1.22503
thorax -5.77535 -3.64144 5.04885
lowerneck -13.7923 -4.90884 -0.52563
upperneck 42.4655 -7.10207 3.23094
head 18.4847 -1.96484 0.444403
rclavicle 6.08281e-014 2.70347e-014
rhumerus -60.924 15.2615 -58.7851
rradius 71.4299
rwrist 0.56999
rhand -49.665 10.3966
rfingers 7.12502
rthumb -22.2675 -18.3405
lclavicle 6.08281e-014 2.70347e-014
lhumerus -12.5707 -15.7839 58.3777
lradius 59.7319
lwrist 14.9853
lhand -44.873 -4.86304
lfingers 7.12502
lthumb -17.6615 24.3548
rfemur -16.0906 9.09886 20.8919
rtibia 43.8734
rfoot -31.1181 9.86468
rtoes -3.89205
lfemur -22.4781 -10.981 -8.4078
ltibia 56.2455
lfoot -42.5853 17.7425
ltoes -25.4385
47
root -13.3561 19.5084 -18.4182 43.8913 93.2822 36.3079
lowerback 11.052 -4.60642 -9.59094
upperback -0.535189 -7.40907 -1.39145
thorax -5.73378 -3.33648 4.97834
lowerneck -13.7881 -4.93884 -0.437896
upperneck 42.508 -7.12676 3.13954
head 18.4989 -1.96886 0.382337
rclavicle 3.12092e-014 3.33958e-014
rhumerus -59.3559 14.8983 -56.8967
rradius 69.4758
rwrist -0.599917
rhand -49.838 9.6084
rfingers 7.12502
rthumb -22.4336 -19.1088
lclavicle 3.12092e-014 3.33958e-014
lhumerus -11.9254 -14.6499 55.4338
lradius 58.3329
lwrist 15.4937
lhand -45.1408 -3.93849
lfingers 7.12502
lthumb -17.9191 25.256
rfemur -15.9973 9.18641 20.8209
rtibia 43.4262
rfoot -30.2433 10.2676
rtoes -3.71375
lfemur -21.9185 -10.4814 -8.31414
ltibia 55.8717
lfoot -42.457 17.4245
ltoes -25.0798
